# xmcd CD database file
#
# Track frame offsets:
#	183
#	14783
#	28645
#	40908
#	53008
#	65533
#	79233
#	89383
#	102883
#	117058
#	130908
#	144858
#	158683
#	170533
#	182658
#	195283
#	208258
#	220645
#	241558
#	254158
#	278508
#	301483
#	317158
#
# Disc length: 4503 seconds
#
# Revision: 0
# Processed by: cddbd v1.5.1PL0 Copyright (c) Steve Scherf et al.
# Submitted via: CDex 1.51
#
DISCID=3b119517
DTITLE=Erroll Garner - The Story
DYEAR=1989
DGENRE=Jazz
TTITLE0=Stormy Weather
TTITLE1=I Surrender Dear
TTITLE2=The Man I Love
TTITLE3=Moonglow
TTITLE4=It's Easy To Remember
TTITLE5=Over the Rainbow
TTITLE6=This Can't Be Love
TTITLE7=Body and Soul
TTITLE8=September Song
TTITLE9=All the Things You Are
TTITLE10=Rosalie
TTITLE11=I Only Have Eyes For You
TTITLE12=I Can't Believe That You're In Love With Me
TTITLE13=On the Sunny Side of the Street
TTITLE14=More Than You Know
TTITLE15=All of Me
TTITLE16=Stardust
TTITLE17=The Shadow of Your Smile
TTITLE18=There'll Never Be Another You
TTITLE19=Yesterday
TTITLE20=I'll Remember April
TTITLE21=Misty
TTITLE22=Tell It Like It Is
EXTD=YEAR: 1989
EXTT0=
EXTT1=
EXTT2=
EXTT3=
EXTT4=
EXTT5=
EXTT6=
EXTT7=
EXTT8=
EXTT9=
EXTT10=
EXTT11=
EXTT12=
EXTT13=
EXTT14=
EXTT15=
EXTT16=
EXTT17=
EXTT18=
EXTT19=
EXTT20=
EXTT21=
EXTT22=
PLAYORDER=
